<?xml version="1.0" standalone="no"?><!DOCTYPE svg PUBLIC "-//W3C//DTD SVG 1.1//EN" "http://www.w3.org/Graphics/SVG/1.1/DTD/svg11.dtd"><svg t="1584456768640" class="icon" viewBox="0 0 1024 1024" version="1.1" xmlns="http://www.w3.org/2000/svg" p-id="2845" xmlns:xlink="http://www.w3.org/1999/xlink" width="128" height="128"><defs><style type="text/css"></style></defs><path d="M512 0a512 512 0 1 0 0 1024A512 512 0 0 0 512 0z m231.36 604.992a31.36 31.36 0 0 1-22.144-9.152L542.72 417.472v414.4a31.232 31.232 0 0 1-62.464 0v-413.44L303.36 595.328a31.36 31.36 0 1 1-44.992-43.84L489.216 320.64a31.232 31.232 0 0 1 45.248-0.32l231.168 231.232a31.36 31.36 0 0 1-22.272 53.504z m29.568-323.136H251.072a31.36 31.36 0 0 1 0-62.528h521.856a31.296 31.296 0 1 1 0 62.528z" fill="#2c2c2c" opacity=".5" p-id="2846"></path></svg>